<svg width="140" height="144" viewBox="0 0 140 144" fill="none" xmlns="http://www.w3.org/2000/svg">
<path d="M81.6109 17.7827C85.3115 17.7828 88.9659 18.6104 92.3051 20.2056L101.559 24.6272C103.614 25.6088 105.546 26.8285 107.315 28.2629L133.176 49.2366C136.655 52.0581 137.255 57.1377 134.53 60.6926L75.9926 137.047C74.5837 139.143 72.43 140.325 69.8548 140.325C67.28 140.325 65.178 139.111 63.795 137.162L5.30485 60.7949C2.59251 57.2536 3.17721 52.1994 6.62664 49.3712L32.3276 28.2979C34.151 26.8029 36.1505 25.5363 38.2811 24.5263L47.461 20.1746C50.7826 18.5999 54.4132 17.7827 58.0892 17.7827H81.6109Z" fill="#4DC3EA"/>
<g opacity="0.5" filter="url(#filter0_f_12139_169997)">
<path d="M81.6109 17.7827C85.3115 17.7828 88.9659 18.6104 92.3051 20.2056L101.559 24.6272C103.614 25.6088 105.546 26.8285 107.315 28.2629L133.176 49.2366C136.655 52.0581 137.255 57.1377 134.53 60.6926L75.9926 137.047C74.5837 139.143 72.43 140.325 69.8548 140.325C67.28 140.325 65.178 139.111 63.795 137.162L5.30485 60.7949C2.59251 57.2536 3.17721 52.1994 6.62664 49.3712L32.3276 28.2979C34.151 26.8029 36.1505 25.5363 38.2811 24.5263L47.461 20.1746C50.7826 18.5999 54.4132 17.7827 58.0892 17.7827H81.6109Z" fill="#4DC3EA"/>
</g>
<path d="M83.5968 18.9795C85.672 18.9795 87.6835 19.6967 89.2907 21.0096L100.875 30.4735C101.854 31.2731 101.855 32.7687 100.877 33.5696L89.3959 42.9735C87.7874 44.291 85.7723 45.0109 83.6931 45.0109H56.1021C54.019 45.0109 52.0004 44.2883 50.3905 42.9663L38.916 33.544C37.9407 32.743 37.9419 31.25 38.9185 30.4506L50.4473 21.0148C52.0555 19.6986 54.0695 18.9795 56.1476 18.9795H83.5968Z" fill="#B2F0FF"/>
<path d="M83.5968 18.9795C85.672 18.9795 87.6835 19.6967 89.2907 21.0096L100.875 30.4735C101.854 31.2731 101.855 32.7687 100.877 33.5696L89.3959 42.9735C87.7874 44.291 85.7723 45.0109 83.6931 45.0109H56.1021C54.019 45.0109 52.0004 44.2883 50.3905 42.9663L38.916 33.544C37.9407 32.743 37.9419 31.25 38.9185 30.4506L50.4473 21.0148C52.0555 19.6986 54.0695 18.9795 56.1476 18.9795H83.5968Z" fill="#B2F0FF"/>
<path d="M99.1507 83.98C100.677 83.98 101.641 85.6215 100.897 86.9546L73.4931 136.063C72.1142 138.454 67.6771 138.94 65.9865 136.063L38.5515 86.9554C37.8067 85.6223 38.7704 83.98 40.2975 83.98H99.1507Z" fill="#009FD9"/>
<path d="M93.1895 83.98C97.3878 83.98 100.038 88.494 97.9923 92.1601L73.4931 136.063C72.1142 138.454 67.6771 138.94 65.9865 136.063L41.4605 92.1625C39.4123 88.4963 42.0625 83.98 46.262 83.98H93.1895Z" fill="#009FD9"/>
<path d="M56.1458 110.45C55.0584 108.566 55.4518 106.406 57.5436 105.809C59.8116 105.161 63.6133 104.555 69.8996 104.555C76.1859 104.555 79.9876 105.161 82.2557 105.809C84.3474 106.406 84.7409 108.566 83.6535 110.45L72.7746 129.3C72.0944 130.422 71.5644 131.219 71.1204 131.725C70.4891 132.444 69.3102 132.443 68.6789 131.724C68.2348 131.219 67.7047 130.421 67.0246 129.3L56.1458 110.45Z" fill="#008CD1"/>
<path d="M53.846 47.4829C52.3823 47.4829 51.7702 48.8037 53.0391 49.5335C55.4346 50.9112 60.1456 52.4763 69.1871 52.4763C77.9311 52.4763 82.9393 51.0125 85.6938 49.67C87.1384 48.9659 86.5647 47.4829 84.9577 47.4829L53.846 47.4829Z" fill="#83DEFC"/>
<path d="M48.5609 44.489C49.9945 45.6578 50.4397 47.6571 49.6376 49.3238L35.5413 78.6132C34.9802 79.779 33.4766 80.1133 32.4743 79.2951L6.03821 57.7131C4.19965 56.2122 4.34573 53.3623 6.33758 52.0717C13.0557 47.7187 26.4363 39.0492 32.6179 35.0465C34.0745 34.1033 35.9605 34.2156 37.3054 35.3121L48.5609 44.489Z" fill="#CEF5FF"/>
<path d="M133.317 51.8018C135.32 53.0853 135.486 55.9502 133.646 57.4571L107 79.268C105.995 80.0913 104.483 79.7515 103.926 78.5769L90.0827 49.3675C89.2956 47.7068 89.7414 45.7234 91.1636 44.5592L102.463 35.31C103.803 34.2131 105.696 34.103 107.154 35.0373L133.317 51.8018Z" fill="#009FD9"/>
<path d="M130.468 56.3591L106.592 74.8169L96.2558 54.6342C95.8344 53.8113 96.0224 52.7955 96.797 52.2907C108.081 44.9377 136.471 51.0674 130.468 56.3591Z" fill="#008CD1"/>
<path d="M94.4393 50.9137C93.9681 51.3275 93.2319 51.1754 92.9633 50.6087C92.1831 48.9626 92.6251 46.9967 94.0347 45.8428L103.71 37.9228C104.898 36.9499 106.578 36.8523 107.871 37.681C108.344 37.9841 108.395 38.656 107.973 39.0268L94.4393 50.9137Z" fill="#4DC3EA"/>
<path d="M78.7366 131.5L103.466 87.1506C104.786 84.7823 106.543 82.6853 108.643 80.97L132.227 61.7061L78.7366 131.5Z" fill="#008CD1"/>
<path d="M61.2432 131.5L36.5141 87.1506C35.1935 84.7823 33.4369 82.6853 31.3369 80.97L7.75256 61.7061L61.2432 131.5Z" fill="#009FD9"/>
<g opacity="0.15">
<path d="M120.924 59.7483C112.791 76.4556 92.6214 83.4165 75.9142 75.2826C59.2069 67.1487 52.246 46.9797 60.3799 30.2724C68.5138 13.5652 88.6828 6.60424 105.39 14.7381C122.097 22.872 129.058 43.0411 120.924 59.7483Z" fill="url(#paint0_radial_12139_169997)"/>
</g>
<g opacity="0.15">
<path d="M45.839 103.676C36.1161 107.588 25.0453 102.871 21.1328 93.1478C17.2204 83.4249 21.938 72.3541 31.661 68.4416C41.3839 64.5292 52.4547 69.2469 56.3671 78.9698C60.2796 88.6927 55.5619 99.7635 45.839 103.676Z" fill="url(#paint1_radial_12139_169997)"/>
</g>
<path opacity="0.5" d="M39.9729 78.4247L50.1244 56.3401C50.777 54.9205 52.1891 53.9903 53.745 54.1334C74.9168 56.0803 110.983 80.5512 95.4933 80.5512H41.3359C40.2422 80.5512 39.5162 79.4185 39.9729 78.4247Z" fill="#009FD9"/>
<path d="M45.1845 46.7939L35.4726 38.4793C34.9313 38.0159 34.1247 38.0096 33.8111 38.6495C30.9155 44.557 35.6489 68.4037 39.6648 60.6396L45.5565 48.5924C45.8569 47.9782 45.7039 47.2386 45.1845 46.7939Z" fill="white"/>
<defs>
<filter id="filter0_f_12139_169997" x="-2.43187e-05" y="14.1827" width="139.837" height="129.742" filterUnits="userSpaceOnUse" color-interpolation-filters="sRGB">
<feFlood flood-opacity="0" result="BackgroundImageFix"/>
<feBlend mode="normal" in="SourceGraphic" in2="BackgroundImageFix" result="shape"/>
<feGaussianBlur stdDeviation="1.8" result="effect1_foregroundBlur_12139_169997"/>
</filter>
<radialGradient id="paint0_radial_12139_169997" cx="0" cy="0" r="1" gradientUnits="userSpaceOnUse" gradientTransform="translate(89.5548 44.5951) rotate(115.959) scale(32.6731)">
<stop stop-color="white"/>
<stop offset="0.5" stop-color="white" stop-opacity="0.5"/>
<stop offset="1" stop-color="white" stop-opacity="0"/>
</radialGradient>
<radialGradient id="paint1_radial_12139_169997" cx="0" cy="0" r="1" gradientUnits="userSpaceOnUse" gradientTransform="translate(38.448 85.47) rotate(158.08) scale(18.4281 18.4281)">
<stop stop-color="white"/>
<stop offset="0.5" stop-color="white" stop-opacity="0.5"/>
<stop offset="1" stop-color="white" stop-opacity="0"/>
</radialGradient>
</defs>
</svg>
